PathFileType	4	(X/Y/Z)	T1_P2_Vision_Movement_3_0-736.trc
DataRate	CameraRate	NumFrames	NumMarkers	Units	OrigDataRate	OrigDataStartFrame	OrigNumFrames
60	60	7	27	m	60	644	736
Frame#	Time	RHip			RKnee			RAnkle			RBigToe			RSmallToe			RHeel			LHip			LKnee			LAnkle			LBigToe			LSmallToe			LHeel			Neck			Head			Nose			RShoulder			RElbow			RWrist			RThumb			RIndex			RPinky			LShoulder			LElbow			LWrist			LThumb			LIndex			LPinky		
		X1	Y1	Z1	X2	Y2	Z2	X3	Y3	Z3	X4	Y4	Z4	X5	Y5	Z5	X6	Y6	Z6	X7	Y7	Z7	X8	Y8	Z8	X9	Y9	Z9	X10	Y10	Z10	X11	Y11	Z11	X12	Y12	Z12	X13	Y13	Z13	X14	Y14	Z14	X15	Y15	Z15	X16	Y16	Z16	X17	Y17	Z17	X18	Y18	Z18	X19	Y19	Z19	X20	Y20	Z20	X21	Y21	Z21	X22	Y22	Z22	X23	Y23	Z23	X24	Y24	Z24	X25	Y25	Z25	X26	Y26	Z26	X27	Y27	Z27
645	10.75	439.2009756578048	3644.7266233262208	620.8013517289845	833.8988915580771	3696.0339097187966	647.9210793964967	1224.2965305465007	3762.259916374921	718.6289171214038	1288.4000809057898	3632.172719556785	654.2201674340808	1275.222799495113	3660.941443726209	603.0661889344706	1289.0090224313196	3812.5423528944357	761.3126386123986	455.7500894645391	3605.0465802064195	842.2522634604217	854.9263464755275	3619.039489999303	845.8589923704488	1241.5470301923206	3705.6105278155287	857.8480729444794	1308.7097473632496	3585.5674644080896	784.3243634490319	1285.367082560629	3552.995883407856	821.1082628284164	1273.0183249291747	3725.578661986184	847.6439225911291	-105.1292547243673	3606.479258366505	734.7145677868688	-372.0134855880867	3488.17275359825	654.125766771789	-214.2621092150469	3408.3454371139524	631.4577160120162	-34.85615212578463	3644.326589642939	562.8582610071999	187.7447815965137	3807.3945819163164	522.7386558893993	193.1832924749621	3542.3859023215787	535.3921256548929	169.21910352362494	3411.9072630767932	627.8609820022803	206.36925889524247	3417.8477812391525	629.865856601926	283.2383152813943	3435.440389944854	623.5317452331055	-26.431585453870426	3522.185821870229	879.4215782703028	182.98319165695096	3445.572683047906	948.4962414686817	228.52338742040385	3368.568349334968	738.2242705747917	182.40773182297394	3404.9609244008825	634.5942567255175	211.1491603287867	3384.2395388006976	610.5580798548759	282.54963931714366	3433.232234280575	634.9797966362245
646	10.766666666666667	439.0261091491291	3644.4494339779717	620.9272028425381	831.4472499198713	3686.3941752307587	648.4605357068724	1217.678531073501	3758.1163906716283	717.6048517020935	1288.5480974266525	3634.068148307872	654.7644446084341	1286.3321027877819	3684.8718585339034	621.1846082528782	1282.6253571490163	3808.003080067321	760.2900011578911	455.5617852157327	3605.0738872202983	842.4645627892679	855.0813322399571	3619.409825854007	846.0551589902173	1241.4699147358804	3705.3234028091833	857.8150954886913	1321.2406595743787	3602.8107512428223	799.4820942448171	1290.3449857327312	3554.6771298970266	822.780443875443	1266.114259775045	3720.7744764125423	846.3642506222795	-109.53285072904407	3610.662794629757	737.0200064257754	-373.5719599113969	3508.2900672784954	659.6109557714525	-214.21656284722894	3411.303893792457	627.1622922894999	-34.04575888294868	3661.2239629629794	576.4678094170874	185.77083434404676	3789.419795939479	509.27896704782273	197.8100445863758	3532.8774522497065	541.4502835882729	185.54905657637946	3438.1410240572536	653.4130203230254	217.9406707690545	3443.1467349267778	659.6986976516456	288.23818854025046	3431.4848887887083	622.0662341610803	-26.441696718593594	3522.1367701782733	879.3987831444607	184.54097343180368	3466.2942340764607	955.9997245768667	228.58257431379803	3368.8011031941933	738.4202943347714	196.44400780304346	3415.403167765398	645.2552179252805	211.3937177254386	3383.870873832095	610.518635513734	281.03386454134414	3414.5776181851115	630.0482399788191
647	10.783333333333333	439.0248769271836	3641.3874138013844	624.9788643005145	837.135883868058	3688.3819241230767	649.9087598616375	1224.4003709991478	3762.5631430980625	718.8587651569235	1288.7199498509056	3631.378020175116	659.7731807701828	1286.5639249388346	3684.7646631877765	621.1144711517609	1289.0389509434883	3812.47457012359	761.284046418353	455.8478064286271	3605.1791597411875	842.6373114800306	855.20580289451	3619.4620818613703	846.1532161618579	1241.4531312786223	3705.3790729801963	857.8220171996937	1313.4715970978714	3587.4468245650974	786.1129880833184	1290.2337390323703	3554.6822503743515	822.7994933071091	1266.0439793174319	3720.753650615012	846.3108789400075	-109.66291642857797	3610.7589163649627	737.0355109627443	-373.6606000986114	3508.320621636683	659.5816397239203	-218.3642800292307	3393.6716483698024	613.148323414516	-34.115841220843144	3661.070689093257	576.3861923795517	185.80508457222933	3789.3441306076616	509.28072631261756	202.82704037566174	3536.4917216258596	542.902647865759	187.1168831880039	3420.1078968403135	637.7020596612208	215.0781586977946	3408.874743873848	640.0927556515973	291.77360889511624	3427.3582273105426	619.7699226577204	-26.497586972135238	3522.283173106431	879.5532313075495	184.530979752903	3466.516976714527	956.0226073936586	228.57207218683467	3368.6999731220344	738.2096917407389	196.60844691588446	3415.3174276970235	644.93232698731	211.54236748416645	3383.852929937363	610.1151593541828	281.02864273513484	3415.31309008207	630.1923468727617
648	10.8	438.96787684279093	3641.5732031528555	625.0607129045949	831.5622829971221	3686.4739999754465	648.4848415947301	1224.391986485525	3762.499874116601	718.7550921955414	1288.51794736832	3634.012647309123	654.596064006301	1278.8281211942256	3668.264054605124	607.490675883839	1289.0374372685328	3812.520824621975	761.3025722475489	455.8243381313515	3605.284412082877	842.5116636213739	860.6541513179495	3641.2067175684833	853.1926808373587	1241.5279964179379	3705.2418747906268	857.7531606463742	1313.5002584757997	3587.408221717484	786.1502137108866	1290.3131630772186	3554.6468562233363	822.9130391024291	1278.4661612739822	3727.1044024339362	849.2917282781934	-109.5588592380985	3610.847808838596	737.1132078294465	-373.61474499863004	3508.486010426221	659.6570802585766	-214.13931333202106	3397.2414452019143	614.7597214156457	-34.12760142468894	3660.928404115356	576.3229399330835	187.97488109732157	3807.205479847564	522.786741175216	204.93619280202412	3552.16744259106	556.2300286554896	186.99455599603834	3418.8957370558574	641.5403640455232	218.85051441857652	3410.1036470735967	646.1075889146341	291.9229849163996	3426.4688891565097	619.4662309083362	-30.84396910223159	3518.519393802947	877.8667834155034	182.9437479648416	3445.6991396708254	948.613166035097	222.34746600656197	3353.949865679238	724.4269846257363	189.9864588013473	3397.1911093163285	630.3765620264945	215.48717983670346	3384.7326483392717	610.6252771635505	287.9676582125308	3436.879345649454	636.4947165499494
649	10.816666666666666	442.2359168825173	3658.0356352958697	638.9406598832979	837.0803245781137	3688.5271202645554	649.857415177491	1229.8307509988092	3764.4875105458523	720.4758775403516	1288.331804710805	3633.541680280431	654.4519878878588	1285.9856185639637	3681.7931850568125	624.980299521645	1282.9318063330256	3807.892866604316	760.0908987191636	455.57026457540496	3605.646356877769	843.0826915996835	860.5988375875245	3641.213755694965	853.2265858254459	1241.5318726648852	3705.3640172231603	857.8519813189123	1308.5063170703997	3585.39359652208	784.2604730651049	1285.1780483298714	3553.2583769276375	821.4173907515772	1272.5006868900145	3722.2412119819955	852.2719247241906	-109.12558563619679	3626.2655948354486	750.748106185038	-373.61342342035596	3508.4325827441867	659.4522577762817	-218.29177788222512	3393.7918408159208	613.170600022379	-34.14583247934417	3661.022756178724	576.4756301920955	188.01617492664633	3807.7098098259776	523.2773522620232	202.84165500004784	3536.1750903304505	542.8417529299181	188.22445449198167	3401.763791358809	621.4264963122313	214.05870876080914	3381.6414296350645	609.4823526511381	286.59836996490543	3415.967579690299	608.7373701637757	-26.590677259927446	3522.172103425543	879.6777890173479	187.4520560426077	3449.0151291856287	950.0310516155088	222.28952763777824	3353.2858429541566	723.8869478961244	190.46596084579625	3400.2964635693347	625.6106975279698	215.74149889929848	3385.176276829979	603.0839441408926	282.6106070118791	3433.445571469537	634.3682020156975
650	10.833333333333334	438.97280645873644	3641.6783353830424	625.3148830428569	837.1106561396294	3688.6578397404737	649.9183289210496	1222.1772414972374	3747.2628354385015	706.2647483547725	1288.4867043686397	3633.6886321841657	654.6906574926921	1286.2208368188406	3684.5258651373533	621.0920031250685	1289.0611590011342	3812.539854338725	761.2478254939259	455.63236229257086	3605.428687128245	842.8129836242935	860.6442899502405	3641.1438977981543	853.1103369082342	1241.4674206421807	3705.2734134686916	857.763988061502	1308.3178473678383	3584.8832484454	784.1111102964079	1284.9673711903765	3552.990376469436	821.2661914618079	1272.8797152431764	3725.158195475058	847.6270802381773	-109.12356190734049	3626.335356991483	750.8046204910888	-373.6045292101121	3508.416148278414	659.3966379574864	-210.33537231631593	3418.608100057259	620.9671161265279	-34.15038584767468	3661.4090181999427	576.6819405619246	188.2160355546985	3808.3117039728154	523.7388013487591	204.99058416806463	3552.2216912997287	556.332023493733	188.18242863461182	3403.213807658092	618.0247994583345	215.73808958166163	3394.379232209754	621.6800576663423	288.82497449245307	3429.857170071814	621.5412670948787	-26.655765408867538	3521.8412897463245	879.4601189721639	187.30446087163077	3448.870623847152	949.9870811574674	222.31047785973183	3353.5779069111404	724.1646228159914	190.8197691209584	3404.399368523568	622.3175838696485	215.88408199006514	3385.6857051905004	603.3914108569558	289.2845880462412	3441.719145472332	650.0655204332244
651	10.85	442.26142059929396	3657.988652795142	638.8945655154012	837.1035727320871	3690.8275665446045	645.4260675346546	1229.8821974549837	3764.5950710999946	720.5319186623121	1288.2639396752397	3630.7644209131345	659.3301595410235	1288.032567056666	3676.5832801079905	622.4400824600125	1282.986741625888	3807.9891405028275	760.0826779080022	455.6198763784555	3605.1537693977953	842.8188331035691	858.6020999036726	3614.038021572039	842.9675827853173	1241.5266708158113	3705.223201335762	857.7435959657512	1308.494011299398	3585.1278977935126	784.2562769572734	1290.1242612031365	3554.3831146502703	822.7898628282522	1278.1309561503638	3724.0007102356853	853.6348898817968	-109.19269307054003	3626.466041904366	750.9485372902752	-373.56602676207063	3508.1124927029255	659.2232129640497	-214.11435568274118	3397.615499762837	614.8643494924378	-34.16346948921621	3661.723306498365	576.8968231026774	188.0699815358169	3808.0499073772953	523.5276069030826	204.8959232215961	3552.0742363171403	556.3089172481609	188.00908259656984	3403.369666395476	618.4574477973119	215.6168419934329	3394.667714644699	622.339569884191	288.96753661862806	3429.5752984475257	621.6795918579844	-31.013632014945003	3518.0296714305878	877.7051808958566	187.31915958488443	3449.257680504791	950.2962995209	224.22920286897562	3367.076163451263	737.3194209695954	192.59889545775724	3416.3257541506136	639.6604380646054	214.1097317192565	3399.274888166733	615.8204603857771	289.28785122313843	3442.0757000226104	650.5676442064774
